# xmcd CD database file
# Copyright (C) 1995-1998 Ti Kan
#
# Track frame offsets:
#	150
#	25495
#	50807
#	76634
#	98331
#	121218
#	150923
#	172224
#	204378
#	228939
#
# Disc length: 3392 seconds
#
# Revision: 1
# Processed by: cddbd v1.4PL0 Copyright (c) Steve Scherf et al.
# Submitted via: CDex 1.30Release
#
DISCID=6f0d3e0a
DTITLE=Pinetop Perkins - Live At Antone's Vol.1
DYEAR=1900
DGENRE=Blues
TTITLE0=Got My Mojo Working
TTITLE1=Pinetop's Mambo
TTITLE2=I Almost Lost My Mind
TTITLE3=Look on Yonder's Wall
TTITLE4=Big Fat Mama
TTITLE5=Hootchie Cootchie Man
TTITLE6=Just A Little Bit
TTITLE7=Caldonia
TTITLE8=Hi Heel Sneakers
TTITLE9=Chicken Shack
EXTD=ID3G:   0
EXTT0=
EXTT1=
EXTT2=
EXTT3=
EXTT4=
EXTT5=
EXTT6=
EXTT7=
EXTT8=
EXTT9=
PLAYORDER=
